<svg width="36" height="36" viewBox="0 0 36 36" fill="none" xmlns="http://www.w3.org/2000/svg">
<g opacity="0.25">
<path d="M31.8151 23.8351C30.8608 26.0918 29.3683 28.0804 27.4679 29.6271C25.5676 31.1737 23.3173 32.2313 20.9138 32.7073C18.5103 33.1833 16.0268 33.0633 13.6803 32.3578C11.3339 31.6523 9.19605 30.3827 7.45365 28.6601C5.71124 26.9375 4.41734 24.8142 3.68507 22.476C2.9528 20.1378 2.80446 17.6558 3.25301 15.2471C3.70157 12.8383 4.73336 10.5761 6.25819 8.65816C7.78301 6.74026 9.75444 5.22509 12.0001 4.24512" stroke="black" stroke-width="2" stroke-linecap="round" stroke-linejoin="round"/>
<path d="M33 18C33 16.0302 32.612 14.0796 31.8582 12.2597C31.1044 10.4399 29.9995 8.78628 28.6066 7.3934C27.2137 6.00052 25.5601 4.89563 23.7403 4.14181C21.9204 3.38799 19.9698 3 18 3V18H33Z" stroke="black" stroke-width="2" stroke-linecap="round" stroke-linejoin="round"/>
</g>
</svg>
