<svg width="38" height="38" viewBox="0 0 38 38" fill="none" xmlns="http://www.w3.org/2000/svg">
<path d="M9.26258 27.075C10.6084 26.0458 12.1126 25.2343 13.7751 24.6406C15.4376 24.0468 17.1792 23.75 19.0001 23.75C20.8209 23.75 22.5626 24.0468 24.2251 24.6406C25.8876 25.2343 27.3917 26.0458 28.7376 27.075C29.6612 25.993 30.3803 24.7659 30.8949 23.3937C31.4095 22.0215 31.6667 20.5569 31.6667 19C31.6667 15.4902 30.4331 12.5017 27.9657 10.0343C25.4983 7.56697 22.5098 6.33329 19.0001 6.33329C15.4904 6.33329 12.5018 7.56697 10.0345 10.0343C7.5671 12.5017 6.33341 15.4902 6.33341 19C6.33341 20.5569 6.59071 22.0215 7.10529 23.3937C7.61987 24.7659 8.33897 25.993 9.26258 27.075ZM19.0001 20.5833C17.4431 20.5833 16.1303 20.0489 15.0615 18.9802C13.9928 17.9114 13.4584 16.5986 13.4584 15.0416C13.4584 13.4847 13.9928 12.1718 15.0615 11.1031C16.1303 10.0343 17.4431 9.49996 19.0001 9.49996C20.557 9.49996 21.8699 10.0343 22.9386 11.1031C24.0074 12.1718 24.5417 13.4847 24.5417 15.0416C24.5417 16.5986 24.0074 17.9114 22.9386 18.9802C21.8699 20.0489 20.557 20.5833 19.0001 20.5833ZM19.0001 34.8333C16.8098 34.8333 14.7515 34.4177 12.8251 33.5864C10.8987 32.7552 9.223 31.627 7.798 30.202C6.373 28.777 5.24487 27.1013 4.41362 25.175C3.58237 23.2486 3.16675 21.1902 3.16675 19C3.16675 16.8097 3.58237 14.7513 4.41362 12.825C5.24487 10.8986 6.373 9.22288 7.798 7.79788C9.223 6.37288 10.8987 5.24475 12.8251 4.4135C14.7515 3.58225 16.8098 3.16663 19.0001 3.16663C21.1904 3.16663 23.2487 3.58225 25.1751 4.4135C27.1015 5.24475 28.7772 6.37288 30.2022 7.79788C31.6272 9.22288 32.7553 10.8986 33.5865 12.825C34.4178 14.7513 34.8334 16.8097 34.8334 19C34.8334 21.1902 34.4178 23.2486 33.5865 25.175C32.7553 27.1013 31.6272 28.777 30.2022 30.202C28.7772 31.627 27.1015 32.7552 25.1751 33.5864C23.2487 34.4177 21.1904 34.8333 19.0001 34.8333Z" fill="#1D1B20"/>
</svg>
