<svg width="37" height="37" viewBox="0 0 37 37" fill="none" xmlns="http://www.w3.org/2000/svg">
<path d="M28.6667 16.4C28.6667 14.7026 27.9643 13.0747 26.714 11.8745C25.4638 10.6743 23.7681 10 22 10C20.2319 10 18.5362 10.6743 17.286 11.8745C16.0357 13.0747 15.3333 14.7026 15.3333 16.4C15.3333 23.8667 12 26 12 26H32C32 26 28.6667 23.8667 28.6667 16.4Z" stroke="black" stroke-width="2" stroke-linecap="round" stroke-linejoin="round"/>
<path d="M24.1672 30.375C23.8961 30.8422 23.5071 31.2301 23.039 31.4997C22.5709 31.7693 22.0403 31.9112 21.5001 31.9112C20.9599 31.9112 20.4292 31.7693 19.9612 31.4997C19.4931 31.2301 19.104 30.8422 18.833 30.375" stroke="black" stroke-width="2" stroke-linecap="round" stroke-linejoin="round"/>
</svg>
