<svg width="142" height="143" viewBox="0 0 142 143" fill="none" xmlns="http://www.w3.org/2000/svg">
<g clip-path="url(#clip0_445_111)">
<g filter="url(#filter0_d_445_111)">
<circle cx="70" cy="72" r="53" fill="url(#paint0_linear_445_111)"/>
</g>
<path d="M35.099 72.067C35.099 70.911 35.3653 69.874 35.898 68.956C36.442 68.038 37.173 67.324 38.091 66.814C39.0203 66.2927 40.0346 66.032 41.134 66.032C42.392 66.032 43.5083 66.3437 44.483 66.967C45.469 67.579 46.183 68.4517 46.625 69.585H44.296C43.99 68.9617 43.565 68.497 43.021 68.191C42.477 67.885 41.848 67.732 41.134 67.732C40.352 67.732 39.655 67.9077 39.043 68.259C38.431 68.6103 37.9493 69.1147 37.598 69.772C37.258 70.4293 37.088 71.1943 37.088 72.067C37.088 72.9397 37.258 73.7047 37.598 74.362C37.9493 75.0193 38.431 75.5293 39.043 75.892C39.655 76.2433 40.352 76.419 41.134 76.419C41.848 76.419 42.477 76.266 43.021 75.96C43.565 75.654 43.99 75.1893 44.296 74.566H46.625C46.183 75.6993 45.469 76.572 44.483 77.184C43.5083 77.796 42.392 78.102 41.134 78.102C40.0233 78.102 39.009 77.847 38.091 77.337C37.173 76.8157 36.442 76.096 35.898 75.178C35.3653 74.26 35.099 73.223 35.099 72.067ZM52.7864 78.153C51.9024 78.153 51.1034 77.9547 50.3894 77.558C49.6754 77.15 49.1144 76.5833 48.7064 75.858C48.2984 75.1213 48.0944 74.2713 48.0944 73.308C48.0944 72.356 48.3041 71.5117 48.7234 70.775C49.1427 70.0383 49.7151 69.4717 50.4404 69.075C51.1657 68.6783 51.9761 68.48 52.8714 68.48C53.7667 68.48 54.5771 68.6783 55.3024 69.075C56.0277 69.4717 56.6001 70.0383 57.0194 70.775C57.4387 71.5117 57.6484 72.356 57.6484 73.308C57.6484 74.26 57.4331 75.1043 57.0024 75.841C56.5717 76.5777 55.9824 77.15 55.2344 77.558C54.4977 77.9547 53.6817 78.153 52.7864 78.153ZM52.7864 76.47C53.2851 76.47 53.7497 76.351 54.1804 76.113C54.6224 75.875 54.9794 75.518 55.2514 75.042C55.5234 74.566 55.6594 73.988 55.6594 73.308C55.6594 72.628 55.5291 72.0557 55.2684 71.591C55.0077 71.115 54.6621 70.758 54.2314 70.52C53.8007 70.282 53.3361 70.163 52.8374 70.163C52.3387 70.163 51.8741 70.282 51.4434 70.52C51.0241 70.758 50.6897 71.115 50.4404 71.591C50.1911 72.0557 50.0664 72.628 50.0664 73.308C50.0664 74.3167 50.3214 75.0987 50.8314 75.654C51.3527 76.198 52.0044 76.47 52.7864 76.47ZM64.1202 68.48C64.8569 68.48 65.5142 68.633 66.0922 68.939C66.6816 69.245 67.1406 69.6983 67.4692 70.299C67.7979 70.8997 67.9622 71.625 67.9622 72.475V78H66.0412V72.764C66.0412 71.9253 65.8316 71.285 65.4122 70.843C64.9929 70.3897 64.4206 70.163 63.6952 70.163C62.9699 70.163 62.3919 70.3897 61.9612 70.843C61.5419 71.285 61.3322 71.9253 61.3322 72.764V78H59.3942V68.633H61.3322V69.704C61.6496 69.3187 62.0519 69.0183 62.5392 68.803C63.0379 68.5877 63.5649 68.48 64.1202 68.48ZM74.9903 68.48C75.7269 68.48 76.3843 68.633 76.9623 68.939C77.5516 69.245 78.0106 69.6983 78.3393 70.299C78.6679 70.8997 78.8323 71.625 78.8323 72.475V78H76.9113V72.764C76.9113 71.9253 76.7016 71.285 76.2823 70.843C75.8629 70.3897 75.2906 70.163 74.5653 70.163C73.8399 70.163 73.2619 70.3897 72.8313 70.843C72.4119 71.285 72.2023 71.9253 72.2023 72.764V78H70.2643V68.633H72.2023V69.704C72.5196 69.3187 72.9219 69.0183 73.4093 68.803C73.9079 68.5877 74.4349 68.48 74.9903 68.48ZM89.7193 73.087C89.7193 73.4383 89.6966 73.7557 89.6513 74.039H82.4943C82.551 74.787 82.8286 75.3877 83.3273 75.841C83.826 76.2943 84.438 76.521 85.1633 76.521C86.206 76.521 86.9426 76.0847 87.3733 75.212H89.4643C89.181 76.0733 88.6653 76.7817 87.9173 77.337C87.1806 77.881 86.2626 78.153 85.1633 78.153C84.268 78.153 83.4633 77.9547 82.7493 77.558C82.0466 77.15 81.4913 76.5833 81.0833 75.858C80.6866 75.1213 80.4883 74.2713 80.4883 73.308C80.4883 72.3447 80.681 71.5003 81.0663 70.775C81.463 70.0383 82.0126 69.4717 82.7153 69.075C83.4293 68.6783 84.2453 68.48 85.1633 68.48C86.0473 68.48 86.835 68.6727 87.5263 69.058C88.2176 69.4433 88.756 69.9873 89.1413 70.69C89.5266 71.3813 89.7193 72.1803 89.7193 73.087ZM87.6963 72.475C87.685 71.761 87.43 71.1887 86.9313 70.758C86.4326 70.3273 85.815 70.112 85.0783 70.112C84.4096 70.112 83.8373 70.3273 83.3613 70.758C82.8853 71.1773 82.602 71.7497 82.5113 72.475H87.6963ZM90.8105 73.308C90.8105 72.3447 91.0032 71.5003 91.3885 70.775C91.7852 70.0383 92.3292 69.4717 93.0205 69.075C93.7118 68.6783 94.5052 68.48 95.4005 68.48C96.5338 68.48 97.4688 68.752 98.2055 69.296C98.9535 69.8287 99.4578 70.5937 99.7185 71.591H97.6275C97.4575 71.1263 97.1855 70.7637 96.8115 70.503C96.4375 70.2423 95.9672 70.112 95.4005 70.112C94.6072 70.112 93.9725 70.3953 93.4965 70.962C93.0318 71.5173 92.7995 72.2993 92.7995 73.308C92.7995 74.3167 93.0318 75.1043 93.4965 75.671C93.9725 76.2377 94.6072 76.521 95.4005 76.521C96.5225 76.521 97.2648 76.028 97.6275 75.042H99.7185C99.4465 75.994 98.9365 76.7533 98.1885 77.32C97.4405 77.8753 96.5112 78.153 95.4005 78.153C94.5052 78.153 93.7118 77.9547 93.0205 77.558C92.3292 77.15 91.7852 76.5833 91.3885 75.858C91.0032 75.1213 90.8105 74.2713 90.8105 73.308ZM103.741 70.214V75.399C103.741 75.7503 103.82 76.0053 103.979 76.164C104.149 76.3113 104.432 76.385 104.829 76.385H106.019V78H104.489C103.616 78 102.948 77.796 102.483 77.388C102.018 76.98 101.786 76.317 101.786 75.399V70.214H100.681V68.633H101.786V66.304H103.741V68.633H106.019V70.214H103.741Z" fill="white"/>
</g>
<defs>
<filter id="filter0_d_445_111" x="17" y="19" width="116" height="117" filterUnits="userSpaceOnUse" color-interpolation-filters="sRGB">
<feFlood flood-opacity="0" result="BackgroundImageFix"/>
<feColorMatrix in="SourceAlpha" type="matrix" values="0 0 0 0 0 0 0 0 0 0 0 0 0 0 0 0 0 0 127 0" result="hardAlpha"/>
<feOffset dx="6" dy="7"/>
<feGaussianBlur stdDeviation="2"/>
<feComposite in2="hardAlpha" operator="out"/>
<feColorMatrix type="matrix" values="0 0 0 0 0 0 0 0 0 0 0 0 0 0 0 0 0 0 0.25 0"/>
<feBlend mode="normal" in2="BackgroundImageFix" result="effect1_dropShadow_445_111"/>
<feBlend mode="normal" in="SourceGraphic" in2="effect1_dropShadow_445_111" result="shape"/>
</filter>
<linearGradient id="paint0_linear_445_111" x1="70" y1="19" x2="70" y2="125" gradientUnits="userSpaceOnUse">
<stop stop-color="#24BAFE"/>
<stop offset="1" stop-color="#166F98"/>
</linearGradient>
<clipPath id="clip0_445_111">
<rect width="142" height="143" fill="white"/>
</clipPath>
</defs>
</svg>
